<svg xmlns="http://www.w3.org/2000/svg" viewBox="0 0 24 24"><path d="m20.89 6-1.48-1.31a3 3 0 0 0-4.24.2l-5.7 6.26-.06-.09.1-.1a2.73 2.73 0 0 0 .57-2.27L8.82 2.22a2.74 2.74 0 0 0-5.38 0L2.18 8.69A2.7 2.7 0 0 0 2.76 11l.1.1a3 3 0 0 0-.73 1.9v2a3 3 0 0 0 .7 1.9 2.68 2.68 0 0 0-.7 1.8v2.8a2.71 2.71 0 0 0 2.7 2.7h2.52A2.71 2.71 0 0 0 10 22a1.15 1.15 0 0 1 2.26 0 2.72 2.72 0 0 0 2.65 2.22h2.52a2.71 2.71 0 0 0 2.7-2.7V18.7a2.7 2.7 0 0 0-2.7-2.7h-1.55l5.21-5.72a3 3 0 0 0-.2-4.28M5.11 16a1 1 0 0 1-1-1v-2a1 1 0 0 1 1-1h2a1 1 0 0 1 1 1v2a1 1 0 0 1-1 1Zm.3-13.4a.71.71 0 0 1 .72-.6.72.72 0 0 1 .73.6l1.26 6.48a.74.74 0 0 1-.72.92H4.87a.75.75 0 0 1-.73-.88Zm12.72 16.1v2.8a.7.7 0 0 1-.7.7h-2.52a.7.7 0 0 1-.68-.59 3.15 3.15 0 0 0-6.19 0 .71.71 0 0 1-.69.59H4.83a.71.71 0 0 1-.7-.7v-2.8a.7.7 0 0 1 .7-.7h12.6a.7.7 0 0 1 .7.7m1.48-9.77-6.14 6.74a1 1 0 0 1-.72.33h-.05a1 1 0 0 1-.65-.26l-1.48-1.35a1 1 0 0 1-.06-1.39l6.14-6.74a1 1 0 0 1 .74-.33 1 1 0 0 1 .67.26l1.48 1.35a1 1 0 0 1 .07 1.39"/></svg>