<?xml version="1.0" encoding="utf-8"?>
<svg xmlns="http://www.w3.org/2000/svg" viewBox="0 0 500 500" width="32px" height="32px" xmlns:bx="https://boxy-svg.com"><defs><bx:export><bx:file format="svg" path="ZXC.svg"/></bx:export></defs><ellipse style="stroke-width: 14px; vector-effect: non-scaling-stroke; paint-order: fill; stroke-linecap: round; stroke-linejoin: bevel; stroke-dashoffset: -100px; fill: rgb(255, 255, 255);" cx="250" cy="250" rx="250" ry="250"/><path d="M 382.407 117.573 C 380.857 107.492 375.265 98.498 366.919 92.655 L 362.555 88.995 C 355.81 84.107 347.659 81.548 339.325 81.673 C 337.313 81.534 335.285 81.534 333.272 81.673 C 323.134 83.178 314.026 88.643 307.931 96.878 L 233.034 198.805 L 216.28 107.437 C 211.354 82.782 181.578 72.703 162.699 89.303 C 157.306 94.033 153.631 100.412 152.224 107.437 L 127.586 242.165 C 125.855 251.459 128.331 261.06 134.344 268.353 C 129.486 274.744 126.868 282.558 126.883 290.596 L 126.883 327.2 C 126.883 333.732 128.628 340.152 131.951 345.784 C 122.376 353.117 116.846 364.551 117.027 376.614 L 117.027 381.261 C 117.563 402.295 134.851 419.005 155.885 418.85 L 193.614 418.85 C 214.859 418.92 232.174 401.8 232.329 380.558 L 232.329 375.911 C 232.442 364.368 227.261 353.427 218.251 346.207 C 229.514 331.058 252.18 331.058 263.444 346.207 C 254.473 353.442 249.294 364.381 249.365 375.911 L 249.365 380.558 C 249.503 401.209 265.892 418.089 286.53 418.85 L 323.557 418.85 C 344.914 419.09 362.401 401.914 362.555 380.558 L 362.555 376.614 C 362.441 364.817 356.951 353.724 347.631 346.487 C 350.884 340.828 352.63 334.437 352.701 327.904 L 352.701 291.301 C 352.545 270.057 335.228 252.923 313.985 253.007 L 297.09 253.007 L 375.365 146.857 C 381.672 138.493 384.22 127.892 382.407 117.573 M 339.185 109.126 C 341.407 109.126 343.563 109.816 345.379 111.096 L 350.446 114.757 C 354.797 118.121 355.782 124.289 352.701 128.835 L 265.554 246.952 C 263.906 249.221 261.428 250.741 258.656 251.177 L 256.967 251.177 C 254.728 251.205 252.532 250.459 250.773 249.066 L 245.843 245.545 C 243.523 243.955 241.973 241.449 241.621 238.647 C 241.226 235.931 241.888 233.156 243.453 230.905 L 330.596 112.786 C 332.356 110.744 334.82 109.436 337.494 109.126 L 339.185 109.126 Z M 275.692 376.614 C 275.762 370.842 280.476 366.198 286.251 366.198 L 323.275 366.198 C 329.273 365.874 334.328 370.618 334.398 376.614 L 334.398 381.261 C 334.328 387.033 329.611 391.678 323.838 391.678 L 286.53 391.678 C 280.758 391.678 276.043 387.033 275.971 381.261 L 275.692 376.614 Z M 323.98 327.904 C 323.909 333.677 319.193 338.321 313.42 338.321 L 296.245 338.321 C 292.754 338.42 289.43 336.786 287.376 333.959 C 265.357 298.423 213.662 298.423 191.642 333.959 C 189.573 336.774 186.265 338.405 182.774 338.321 L 165.456 338.321 C 159.685 338.321 154.968 333.677 154.898 327.904 L 154.898 291.301 C 154.574 285.247 159.404 280.164 165.456 280.179 L 313.281 280.179 C 319.052 280.179 323.769 284.824 323.838 290.596 L 323.98 327.904 Z M 184.321 109.126 C 186.435 109.027 188.264 110.562 188.545 112.647 L 213.323 247.235 C 213.76 249.909 211.676 252.331 208.961 252.303 L 159.544 252.303 C 158.248 252.303 157.01 251.726 156.165 250.753 C 155.333 249.783 155.011 248.474 155.32 247.235 L 179.536 112.364 C 180.028 110.195 182.124 108.775 184.321 109.126 M 145.183 376.614 C 145.183 370.802 149.928 366.113 155.743 366.198 L 192.629 366.198 C 198.4 366.198 203.118 370.842 203.188 376.614 L 203.188 381.261 C 202.666 386.288 198.653 390.243 193.614 390.694 L 155.885 390.694 C 150.113 390.694 145.395 386.048 145.325 380.275 L 145.183 376.614 Z" style="paint-order: fill; stroke-width: 11; fill-rule: nonzero;" id="object-0"/></svg>